<?xml version="1.0" encoding="UTF-8" standalone="no"?>
<!DOCTYPE svg PUBLIC "-//W3C//DTD SVG 1.1//EN" "http://www.w3.org/Graphics/SVG/1.1/DTD/svg11.dtd">
<svg width="100%" height="100%" viewBox="0 0 800 800" version="1.1" xmlns="http://www.w3.org/2000/svg" xmlns:xlink="http://www.w3.org/1999/xlink" xml:space="preserve" xmlns:serif="http://www.serif.com/" style="fill-rule:evenodd;clip-rule:evenodd;stroke-linejoin:round;stroke-miterlimit:2;">
    <g transform="matrix(839.924,0,0,704.911,114.762,684.993)">
        <path d="M0.372,-0.492L0.313,-0.492C0.288,-0.492 0.27,-0.499 0.259,-0.511C0.248,-0.524 0.242,-0.541 0.242,-0.563C0.242,-0.609 0.277,-0.633 0.347,-0.633C0.413,-0.633 0.462,-0.623 0.496,-0.604L0.467,-0.582C0.444,-0.592 0.404,-0.598 0.347,-0.598C0.319,-0.598 0.3,-0.595 0.291,-0.588C0.281,-0.582 0.276,-0.574 0.276,-0.563C0.276,-0.551 0.279,-0.543 0.284,-0.537C0.289,-0.53 0.299,-0.527 0.313,-0.527L0.374,-0.527C0.417,-0.527 0.457,-0.52 0.492,-0.505C0.528,-0.49 0.557,-0.469 0.58,-0.444C0.602,-0.418 0.62,-0.388 0.632,-0.354C0.644,-0.321 0.65,-0.285 0.65,-0.246C0.65,-0.215 0.646,-0.185 0.637,-0.157C0.628,-0.129 0.615,-0.104 0.597,-0.08C0.579,-0.057 0.558,-0.036 0.533,-0.019C0.508,-0.002 0.478,0.011 0.444,0.021C0.41,0.03 0.373,0.035 0.333,0.035C0.27,0.035 0.211,0.026 0.156,0.007C0.101,-0.012 0.056,-0.039 0.019,-0.073L0.047,-0.094C0.081,-0.064 0.122,-0.041 0.172,-0.025C0.222,-0.008 0.276,-0 0.333,-0C0.377,-0 0.417,-0.006 0.453,-0.019C0.489,-0.032 0.519,-0.05 0.542,-0.072C0.566,-0.095 0.583,-0.121 0.596,-0.15C0.608,-0.18 0.615,-0.212 0.615,-0.246C0.615,-0.291 0.606,-0.332 0.587,-0.369C0.569,-0.406 0.541,-0.435 0.504,-0.458C0.467,-0.481 0.423,-0.492 0.372,-0.492ZM0.313,-0.457L0.369,-0.457C0.435,-0.457 0.486,-0.437 0.524,-0.396C0.561,-0.356 0.58,-0.306 0.58,-0.246C0.58,-0.185 0.558,-0.135 0.515,-0.095C0.471,-0.055 0.411,-0.035 0.333,-0.035C0.28,-0.035 0.232,-0.042 0.187,-0.057C0.141,-0.071 0.104,-0.091 0.074,-0.117L0.101,-0.139C0.128,-0.117 0.161,-0.1 0.202,-0.088C0.242,-0.076 0.286,-0.07 0.333,-0.07C0.401,-0.07 0.454,-0.087 0.49,-0.12C0.526,-0.153 0.544,-0.195 0.544,-0.246C0.544,-0.297 0.529,-0.339 0.499,-0.372C0.468,-0.405 0.425,-0.422 0.368,-0.422L0.313,-0.422C0.265,-0.422 0.23,-0.435 0.206,-0.461C0.182,-0.487 0.17,-0.521 0.17,-0.563C0.17,-0.604 0.185,-0.638 0.215,-0.664C0.244,-0.69 0.288,-0.703 0.347,-0.703C0.389,-0.703 0.427,-0.698 0.462,-0.689C0.498,-0.679 0.527,-0.665 0.55,-0.647L0.522,-0.626C0.482,-0.654 0.423,-0.668 0.347,-0.668C0.298,-0.668 0.262,-0.658 0.24,-0.639C0.217,-0.62 0.206,-0.594 0.206,-0.563C0.206,-0.531 0.214,-0.505 0.231,-0.486C0.247,-0.467 0.275,-0.457 0.313,-0.457ZM0.313,-0.387L0.367,-0.387C0.414,-0.387 0.45,-0.374 0.474,-0.347C0.497,-0.321 0.509,-0.287 0.509,-0.246C0.509,-0.204 0.495,-0.171 0.465,-0.145C0.436,-0.118 0.391,-0.105 0.333,-0.105C0.291,-0.105 0.253,-0.11 0.217,-0.12C0.181,-0.129 0.152,-0.143 0.129,-0.161L0.157,-0.183C0.197,-0.155 0.256,-0.141 0.333,-0.141C0.382,-0.141 0.418,-0.15 0.44,-0.17C0.463,-0.189 0.474,-0.215 0.474,-0.246C0.474,-0.278 0.466,-0.303 0.449,-0.323C0.432,-0.342 0.404,-0.352 0.366,-0.352L0.313,-0.352C0.246,-0.352 0.194,-0.372 0.156,-0.411C0.119,-0.451 0.1,-0.502 0.1,-0.563C0.1,-0.623 0.122,-0.674 0.165,-0.714C0.208,-0.753 0.269,-0.773 0.347,-0.773C0.399,-0.773 0.448,-0.766 0.493,-0.752C0.538,-0.738 0.576,-0.717 0.605,-0.691L0.578,-0.669C0.551,-0.691 0.518,-0.708 0.478,-0.72C0.437,-0.732 0.394,-0.738 0.347,-0.738C0.278,-0.738 0.226,-0.722 0.19,-0.689C0.153,-0.656 0.135,-0.614 0.135,-0.563C0.135,-0.511 0.151,-0.469 0.181,-0.436C0.212,-0.403 0.256,-0.387 0.313,-0.387ZM0.313,-0.316L0.367,-0.316C0.392,-0.316 0.41,-0.31 0.421,-0.297C0.432,-0.284 0.438,-0.267 0.438,-0.246C0.438,-0.199 0.403,-0.176 0.333,-0.176C0.266,-0.176 0.217,-0.186 0.184,-0.205L0.212,-0.227C0.235,-0.216 0.275,-0.211 0.333,-0.211C0.361,-0.211 0.379,-0.214 0.389,-0.22C0.399,-0.226 0.403,-0.235 0.403,-0.246C0.403,-0.257 0.401,-0.265 0.395,-0.272C0.39,-0.278 0.38,-0.281 0.366,-0.281L0.313,-0.281C0.268,-0.281 0.227,-0.289 0.191,-0.303C0.155,-0.318 0.125,-0.338 0.102,-0.364C0.079,-0.389 0.061,-0.419 0.048,-0.453C0.036,-0.487 0.03,-0.523 0.03,-0.563C0.03,-0.594 0.034,-0.623 0.043,-0.651C0.052,-0.679 0.065,-0.705 0.083,-0.729C0.101,-0.752 0.122,-0.772 0.147,-0.789C0.172,-0.806 0.201,-0.82 0.236,-0.829C0.27,-0.839 0.307,-0.844 0.347,-0.844C0.41,-0.844 0.469,-0.834 0.523,-0.815C0.578,-0.796 0.624,-0.77 0.66,-0.735L0.632,-0.714C0.599,-0.744 0.557,-0.767 0.507,-0.784C0.458,-0.8 0.404,-0.809 0.347,-0.809C0.303,-0.809 0.262,-0.802 0.226,-0.789C0.19,-0.776 0.161,-0.759 0.137,-0.736C0.114,-0.714 0.096,-0.688 0.084,-0.658C0.071,-0.629 0.065,-0.597 0.065,-0.563C0.065,-0.517 0.074,-0.475 0.093,-0.438C0.111,-0.402 0.14,-0.372 0.178,-0.35C0.216,-0.328 0.261,-0.316 0.313,-0.316Z" style="fill:url(#_Linear1);fill-rule:nonzero;"/>
    </g>
    <defs>
        <linearGradient id="_Linear1" x1="0" y1="0" x2="1" y2="0" gradientUnits="userSpaceOnUse" gradientTransform="matrix(0.641113,0,-0,0.744676,0.019043,-0.404297)"><stop offset="0" style="stop-color:rgb(255,0,145);stop-opacity:1"/><stop offset="1" style="stop-color:rgb(255,34,34);stop-opacity:1"/></linearGradient>
    </defs>
</svg>
